<svg width="1567" height="474" viewBox="0 0 1567 474" fill="none" xmlns="http://www.w3.org/2000/svg">
<g opacity="0.25">
<path d="M1093.5 71.9999L1093.5 76.4999L1457 76.4999L1336.28 205L1442.11 205L1445.82 201L1470 71.9999L1093.5 71.9999Z" fill="#2E3757"/>
<path d="M1284 270.5L1275 270.5L1084.5 473.5L1093.5 473.5L1284 270.5Z" fill="#2E3757"/>
<path d="M1093.5 71.9999L1093.5 76.4999L1457 76.4999L1336.28 205L1442.11 205L1445.82 201L1470 71.9999L1093.5 71.9999Z" stroke="#2E3757" stroke-linejoin="round"/>
<path d="M1284 270.5L1275 270.5L1084.5 473.5L1093.5 473.5L1284 270.5Z" stroke="#2E3757" stroke-linejoin="round"/>
</g>
<path d="M1565.5 0.50004L1565.5 72L1445.82 201L1349.03 201L1470 72L1093.5 72.0001L1093.5 0.500061L1565.5 0.50004Z" fill="black"/>
<path d="M1193 473.5L1093.5 473.5L1283.86 270.5L1381.34 270.5L1259.34 402L1565.5 402L1565.5 473.5L1193 473.5Z" fill="black"/>
<path d="M1565.5 0.50004L1565.5 72L1445.82 201L1349.03 201L1470 72L1093.5 72.0001L1093.5 0.500061L1565.5 0.50004Z" stroke="black" stroke-linejoin="round"/>
<path d="M1193 473.5L1093.5 473.5L1283.86 270.5L1381.34 270.5L1259.34 402L1565.5 402L1565.5 473.5L1193 473.5Z" stroke="black" stroke-linejoin="round"/>
<g opacity="0.25">
<path d="M547 201.5L547 205.5L618.5 205.5L618.5 201.5L547 201.5Z" fill="#2E3757"/>
<path d="M620 97L611 97L726.25 205.5L839.5 205.5L833.5 200L620 97Z" fill="#2E3757"/>
<path d="M1020 472.5L1011 472.5L798.5 273L807.5 273L1020 472.5Z" fill="#2E3757"/>
<path d="M547 201.5L547 205.5L618.5 205.5L618.5 201.5L547 201.5Z" stroke="#2E3757" stroke-linejoin="round"/>
<path d="M620 97L611 97L726.25 205.5L839.5 205.5L833.5 200L620 97Z" stroke="#2E3757" stroke-linejoin="round"/>
<path d="M1020 472.5L1011 472.5L798.5 273L807.5 273L1020 472.5Z" stroke="#2E3757" stroke-linejoin="round"/>
</g>
<path d="M547 0.499959L618.5 0.499965L835.148 201.5L731 201.495L618.5 96L618.5 201.5L547 201.5L547 0.499959Z" fill="black"/>
<path d="M547 472.5L618.5 472.5L618.5 273L547 273L547 472.5Z" fill="black"/>
<path d="M1020 373L1020 472.5L807.253 273L912.215 273L1020 373Z" fill="black"/>
<path d="M547 0.499959L618.5 0.499965L835.148 201.5L731 201.495L618.5 96L618.5 201.5L547 201.5L547 0.499959Z" stroke="black" stroke-linejoin="round"/>
<path d="M547 472.5L618.5 472.5L618.5 273L547 273L547 472.5Z" stroke="black" stroke-linejoin="round"/>
<path d="M1020 373L1020 472.5L807.253 273L912.215 273L1020 373Z" stroke="black" stroke-linejoin="round"/>
<g opacity="0.25">
<path d="M186 271.5L177 271.5L393.688 472.5H402L402 377L402 271.5H397.5L397.5 373L186 271.5Z" fill="#2E3757"/>
<path d="M473.5 204V200L402 0.5L397.5 0.5L397.5 204L473.5 204Z" fill="#2E3757"/>
<path d="M0.5 107.5L0.5 100L209 196L217.5 204L104.5 204L0.5 107.5Z" fill="#2E3757"/>
<path d="M186 271.5L177 271.5L393.688 472.5H402L402 377L402 271.5H397.5L397.5 373L186 271.5Z" stroke="#2E3757" stroke-linejoin="round"/>
<path d="M473.5 204V200L402 0.5L397.5 0.5L397.5 204L473.5 204Z" stroke="#2E3757" stroke-linejoin="round"/>
<path d="M0.5 107.5L0.5 100L209 196L217.5 204L104.5 204L0.5 107.5Z" stroke="#2E3757" stroke-linejoin="round"/>
</g>
<path d="M473.5 472.5L402 472.5L185.352 271.5L289.5 271.505L402 377L402 271.5L473.5 271.5L473.5 472.5Z" fill="black"/>
<path d="M473.5 0.5L402 0.5L402 200L473.5 200L473.5 0.5Z" fill="black"/>
<path d="M0.5 100L0.5 0.5L213.247 200L108.285 200L0.5 100Z" fill="black"/>
<path d="M473.5 472.5L402 472.5L185.352 271.5L289.5 271.505L402 377L402 271.5L473.5 271.5L473.5 472.5Z" stroke="black" stroke-linejoin="round"/>
<path d="M473.5 0.5L402 0.5L402 200L473.5 200L473.5 0.5Z" stroke="black" stroke-linejoin="round"/>
<path d="M0.5 100L0.5 0.5L213.247 200L108.285 200L0.5 100Z" stroke="black" stroke-linejoin="round"/>
</svg>
